# File created by Blade
# Date/Time:  Thu Sep 25 17:33:50 2014
# Frame Rate: 120.000 fps
#------------------------------------------------------
:FULLY-SPECIFIED
:DEGREES
1974
root -7.056335 34.039124 -0.225607 41.372022 -11.534331 30.441523
Spine -15.062796 -4.082932 -19.446997
Head -35.047709 37.093895 -23.230198
LeftShoulder -0.353437 11.465451 15.726335
LeftArm 70.208057 31.905690 -41.915657
LeftForeArm 35.254990 -0.000000 107.614859
LeftHand -26.657905 -0.000000 24.366436
LeftHandThumb1 -26.253704 0.000000 33.147579
RightShoulder -13.483867 10.278083 -26.155919
RightArm 4.736508 -32.435224 79.316657
RightForeArm -23.089661 -0.000000 125.628244
RightHand 0.173288 0.000000 -26.864766
RightHandThumb1 -24.326973 -0.000000 -32.862282
LeftUpLeg -7.970018 -5.702209 27.187879
LeftLeg 107.350231 -0.000000 -0.000000
LeftFoot 15.864420 18.485892 -6.572236
LeftToeBase 0.570635 -0.000000 -0.000000
RightUpLeg -50.807034 -5.157824 -29.249522
RightLeg 24.140313 -0.000000 -0.000000
RightFoot -11.551909 -10.694280 -13.540078
RightToeBase -5.808064 -0.000000 0.000000
1975
root -7.095319 34.043741 -0.252071 41.689234 -11.103613 30.797940
Spine -14.995749 -4.349728 -19.537283
Head -35.237678 38.290364 -24.098024
LeftShoulder -0.362384 11.333298 15.639272
LeftArm 70.333309 31.909649 -41.620979
LeftForeArm 35.093263 0.000000 107.589976
LeftHand -26.805406 -0.000000 25.245398
LeftHandThumb1 -26.253704 0.000000 33.147579
RightShoulder -13.401216 10.284062 -26.185135
RightArm 4.428152 -32.368272 79.440461
RightForeArm -23.015173 0.000000 125.684037
RightHand 0.196551 -0.000000 -26.843009
RightHandThumb1 -24.326973 -0.000000 -32.862282
LeftUpLeg -8.206062 -5.399786 28.103848
LeftLeg 105.643306 -0.000000 -0.000000
LeftFoot 16.111669 18.883124 -6.393867
LeftToeBase 0.456100 -0.000000 -0.000000
RightUpLeg -50.974811 -5.538061 -29.398188
RightLeg 24.375523 -0.000000 -0.000000
RightFoot -11.587845 -10.923903 -13.455305
RightToeBase -5.770914 -0.000000 0.000000
1976
root -7.127971 34.051761 -0.273884 42.019646 -10.681046 31.166293
Spine -14.950659 -4.546342 -19.621959
Head -35.392150 39.327678 -24.958330
LeftShoulder -0.378717 11.298911 15.492169
LeftArm 70.549795 31.882412 -41.228651
LeftForeArm 35.588180 -0.000000 107.527205
LeftHand -27.008359 -0.000000 24.660819
LeftHandThumb1 -26.253704 0.000000 33.147579
RightShoulder -13.400813 10.190069 -26.230876
RightArm 4.244982 -32.372764 79.454667
RightForeArm -22.856335 -0.000000 125.747177
RightHand 0.355913 -0.000000 -26.795220
RightHandThumb1 -24.326973 -0.000000 -32.862282
LeftUpLeg -8.439560 -4.952559 29.031600
LeftLeg 103.747323 -0.000000 -0.000000
LeftFoot 16.427452 19.357895 -6.377579
LeftToeBase 0.143611 -0.000000 -0.000000
RightUpLeg -51.123553 -6.013152 -29.498980
RightLeg 24.556675 -0.000000 -0.000000
RightFoot -11.626731 -11.074197 -13.329278
RightToeBase -5.819487 -0.000000 0.000000
1977
root -7.168110 34.059871 -0.300439 42.296908 -10.254824 31.565846
Spine -14.812447 -4.690625 -19.787215
Head -35.572509 40.251607 -25.793607
LeftShoulder -0.266753 11.252331 15.408988
LeftArm 70.639533 31.750337 -40.982551
LeftForeArm 35.372165 -0.000000 107.480648
LeftHand -26.793564 0.000000 24.832847
LeftHandThumb1 -26.253704 0.000000 33.147579
RightShoulder -13.422686 10.134167 -26.250429
RightArm 4.091973 -32.296968 79.559783
RightForeArm -22.858689 -0.000000 125.768369
RightHand 0.299929 -0.000000 -26.703001
RightHandThumb1 -24.326973 -0.000000 -32.862282
LeftUpLeg -8.662879 -4.396426 29.985305
LeftLeg 101.725141 -0.000000 -0.000000
LeftFoot 16.709894 19.728274 -6.365046
LeftToeBase 0.318783 -0.000000 -0.000000
RightUpLeg -51.226671 -6.433331 -29.650232
RightLeg 24.756874 -0.000000 -0.000000
RightFoot -11.661246 -11.279688 -13.203163
RightToeBase -5.798187 -0.000000 0.000000
1978
root -7.217330 34.071490 -0.336023 42.620350 -9.749312 31.985552
Spine -14.637381 -4.908507 -19.917997
Head -35.826112 41.023884 -26.612329
LeftShoulder -0.214421 11.121363 15.320651
LeftArm 70.698011 31.675535 -40.756740
LeftForeArm 35.218102 -0.000000 107.419963
LeftHand -26.678435 0.000000 25.473995
LeftHandThumb1 -26.253704 0.000000 33.147579
RightShoulder -13.414409 10.080866 -26.273854
RightArm 3.914147 -32.098518 79.746906
RightForeArm -22.816206 -0.000000 125.788820
RightHand 0.575322 0.000000 -26.471191
RightHandThumb1 -24.326973 -0.000000 -32.862282
LeftUpLeg -9.020523 -3.746590 31.030656
LeftLeg 99.570015 -0.000000 -0.000000
LeftFoot 17.208871 19.985016 -6.215679
LeftToeBase 0.063255 -0.000000 -0.000000
RightUpLeg -51.321334 -6.926289 -29.750807
RightLeg 24.911693 -0.000000 -0.000000
RightFoot -11.664049 -11.484859 -13.056485
RightToeBase -5.736507 -0.000000 0.000000
1979
root -7.259683 34.089524 -0.360435 42.962484 -9.355266 32.429027
Spine -14.561009 -4.998734 -20.161491
Head -35.938609 41.614720 -27.308004
LeftShoulder -0.074212 11.098982 15.223976
LeftArm 70.777499 31.544063 -40.502435
LeftForeArm 35.150764 -0.000000 107.375946
LeftHand -26.705234 -0.000000 25.434787
LeftHandThumb1 -26.253704 0.000000 33.147579
RightShoulder -13.480494 9.918855 -26.272315
RightArm 3.857492 -32.134571 79.709914
RightForeArm -22.778085 0.000000 125.829626
RightHand 0.502723 -0.000000 -26.462516
RightHandThumb1 -24.326973 -0.000000 -32.862282
LeftUpLeg -9.328361 -2.887625 31.934764
LeftLeg 97.259236 -0.000000 -0.000000
LeftFoot 17.666075 20.209577 -6.096736
LeftToeBase 0.527148 -0.000000 -0.000000
RightUpLeg -51.427860 -7.471885 -29.880245
RightLeg 24.998728 -0.000000 -0.000000
RightFoot -11.664759 -11.525698 -12.890594
RightToeBase -5.743618 -0.000000 0.000000
1980
root -7.305867 34.111148 -0.387577 43.285267 -8.919319 32.916198
Spine -14.397717 -5.215943 -20.387472
Head -36.205245 42.142734 -28.076612
LeftShoulder -0.058802 11.068223 15.084875
LeftArm 70.842998 31.415846 -40.231022
LeftForeArm 35.121531 -0.000000 107.302881
LeftHand -26.568413 -0.000000 25.468599
LeftHandThumb1 -26.253704 0.000000 33.147579
RightShoulder -13.497873 9.882219 -26.310576
RightArm 3.728055 -32.233987 79.714648
RightForeArm -22.863002 0.000000 125.824168
RightHand 0.504944 -0.000000 -26.505448
RightHandThumb1 -24.326973 -0.000000 -32.862282
LeftUpLeg -9.672001 -1.951050 32.825218
LeftLeg 94.813477 -0.000000 -0.000000
LeftFoot 18.175176 20.358070 -5.901032
LeftToeBase 0.451523 -0.000000 -0.000000
RightUpLeg -51.469905 -8.072751 -29.998604
RightLeg 25.043504 -0.000000 -0.000000
RightFoot -11.639190 -11.577637 -12.747354
RightToeBase -5.749337 -0.000000 0.000000
